<?xml version="1.0" encoding="UTF-8"?>
<!DOCTYPE svg PUBLIC "-//W3C//DTD SVG 1.1//EN" "http://www.w3.org/Graphics/SVG/1.1/DTD/svg11.dtd">
<svg xmlns="http://www.w3.org/2000/svg" version="1.1" width="1600px" height="1600px" style="shape-rendering:geometricPrecision; text-rendering:geometricPrecision; image-rendering:optimizeQuality; fill-rule:evenodd; clip-rule:evenodd" xmlns:xlink="http://www.w3.org/1999/xlink">
<g><path style="opacity:1" fill="#000000" d="M -0.5,-0.5 C 532.833,-0.5 1066.17,-0.5 1599.5,-0.5C 1599.5,532.833 1599.5,1066.17 1599.5,1599.5C 1066.17,1599.5 532.833,1599.5 -0.5,1599.5C -0.5,1066.17 -0.5,532.833 -0.5,-0.5 Z M 95.5,95.5 C 298.167,95.5 500.833,95.5 703.5,95.5C 703.5,426.167 703.5,756.833 703.5,1087.5C 580.833,1087.5 458.167,1087.5 335.5,1087.5C 335.5,1092.83 335.5,1098.17 335.5,1103.5C 340.833,1103.5 346.167,1103.5 351.5,1103.5C 351.5,1108.83 351.5,1114.17 351.5,1119.5C 362.167,1119.5 372.833,1119.5 383.5,1119.5C 383.5,1124.83 383.5,1130.17 383.5,1135.5C 394.167,1135.5 404.833,1135.5 415.5,1135.5C 415.5,1140.83 415.5,1146.17 415.5,1151.5C 420.833,1151.5 426.167,1151.5 431.5,1151.5C 431.5,1156.83 431.5,1162.17 431.5,1167.5C 442.167,1167.5 452.833,1167.5 463.5,1167.5C 463.5,1172.83 463.5,1178.17 463.5,1183.5C 468.833,1183.5 474.167,1183.5 479.5,1183.5C 479.5,1188.83 479.5,1194.17 479.5,1199.5C 490.167,1199.5 500.833,1199.5 511.5,1199.5C 511.5,1204.83 511.5,1210.17 511.5,1215.5C 522.167,1215.5 532.833,1215.5 543.5,1215.5C 543.5,1220.83 543.5,1226.17 543.5,1231.5C 548.833,1231.5 554.167,1231.5 559.5,1231.5C 559.5,1236.83 559.5,1242.17 559.5,1247.5C 570.167,1247.5 580.833,1247.5 591.5,1247.5C 591.5,1252.83 591.5,1258.17 591.5,1263.5C 596.833,1263.5 602.167,1263.5 607.5,1263.5C 607.5,1268.83 607.5,1274.17 607.5,1279.5C 618.167,1279.5 628.833,1279.5 639.5,1279.5C 639.5,1284.83 639.5,1290.17 639.5,1295.5C 650.167,1295.5 660.833,1295.5 671.5,1295.5C 671.5,1300.83 671.5,1306.17 671.5,1311.5C 676.833,1311.5 682.167,1311.5 687.5,1311.5C 687.5,1316.83 687.5,1322.17 687.5,1327.5C 698.167,1327.5 708.833,1327.5 719.5,1327.5C 719.5,1332.83 719.5,1338.17 719.5,1343.5C 724.833,1343.5 730.167,1343.5 735.5,1343.5C 735.5,1348.83 735.5,1354.17 735.5,1359.5C 746.167,1359.5 756.833,1359.5 767.5,1359.5C 767.5,1364.83 767.5,1370.17 767.5,1375.5C 772.833,1375.5 778.167,1375.5 783.5,1375.5C 783.5,1380.83 783.5,1386.17 783.5,1391.5C 794.167,1391.5 804.833,1391.5 815.5,1391.5C 815.5,1386.17 815.5,1380.83 815.5,1375.5C 820.833,1375.5 826.167,1375.5 831.5,1375.5C 831.5,1370.17 831.5,1364.83 831.5,1359.5C 842.167,1359.5 852.833,1359.5 863.5,1359.5C 863.5,1354.17 863.5,1348.83 863.5,1343.5C 868.833,1343.5 874.167,1343.5 879.5,1343.5C 879.5,1338.17 879.5,1332.83 879.5,1327.5C 890.167,1327.5 900.833,1327.5 911.5,1327.5C 911.5,1322.17 911.5,1316.83 911.5,1311.5C 916.833,1311.5 922.167,1311.5 927.5,1311.5C 927.5,1306.17 927.5,1300.83 927.5,1295.5C 938.167,1295.5 948.833,1295.5 959.5,1295.5C 959.5,1290.17 959.5,1284.83 959.5,1279.5C 970.167,1279.5 980.833,1279.5 991.5,1279.5C 991.5,1274.17 991.5,1268.83 991.5,1263.5C 996.833,1263.5 1002.17,1263.5 1007.5,1263.5C 1007.5,1258.17 1007.5,1252.83 1007.5,1247.5C 1018.17,1247.5 1028.83,1247.5 1039.5,1247.5C 1039.5,1242.17 1039.5,1236.83 1039.5,1231.5C 1044.83,1231.5 1050.17,1231.5 1055.5,1231.5C 1055.5,1226.17 1055.5,1220.83 1055.5,1215.5C 1066.17,1215.5 1076.83,1215.5 1087.5,1215.5C 1087.5,1210.17 1087.5,1204.83 1087.5,1199.5C 1098.17,1199.5 1108.83,1199.5 1119.5,1199.5C 1119.5,1194.17 1119.5,1188.83 1119.5,1183.5C 1124.83,1183.5 1130.17,1183.5 1135.5,1183.5C 1135.5,1178.17 1135.5,1172.83 1135.5,1167.5C 1146.17,1167.5 1156.83,1167.5 1167.5,1167.5C 1167.5,1162.17 1167.5,1156.83 1167.5,1151.5C 1172.83,1151.5 1178.17,1151.5 1183.5,1151.5C 1183.5,1146.17 1183.5,1140.83 1183.5,1135.5C 1194.17,1135.5 1204.83,1135.5 1215.5,1135.5C 1215.5,1130.17 1215.5,1124.83 1215.5,1119.5C 1226.17,1119.5 1236.83,1119.5 1247.5,1119.5C 1247.5,1114.17 1247.5,1108.83 1247.5,1103.5C 1252.83,1103.5 1258.17,1103.5 1263.5,1103.5C 1263.5,1098.17 1263.5,1092.83 1263.5,1087.5C 1135.5,1087.5 1007.5,1087.5 879.5,1087.5C 879.5,756.833 879.5,426.167 879.5,95.5C 1087.5,95.5 1295.5,95.5 1503.5,95.5C 1503.5,564.833 1503.5,1034.17 1503.5,1503.5C 1034.17,1503.5 564.833,1503.5 95.5,1503.5C 95.5,1034.17 95.5,564.833 95.5,95.5 Z"/></g>
<g><path style="opacity:1" fill="#fe0000" d="M 127.5,1279.5 C 148.833,1279.5 170.167,1279.5 191.5,1279.5C 191.5,1327.5 191.5,1375.5 191.5,1423.5C 596.833,1423.5 1002.17,1423.5 1407.5,1423.5C 1407.5,1375.5 1407.5,1327.5 1407.5,1279.5C 1428.83,1279.5 1450.17,1279.5 1471.5,1279.5C 1471.5,1343.5 1471.5,1407.5 1471.5,1471.5C 1023.5,1471.5 575.5,1471.5 127.5,1471.5C 127.5,1407.5 127.5,1343.5 127.5,1279.5 Z"/></g>
</svg>
