<svg xmlns="http://www.w3.org/2000/svg" version="1.1" xmlns:xlink="http://www.w3.org/1999/xlink" xmlns:svgjs="http://svgjs.dev/svgjs" viewBox="0 0 800 800" preserveAspectRatio="xMidYMid slice"><defs><pattern id="pppixelate-pattern" width="20" height="20" patternUnits="userSpaceOnUse" patternTransform="translate(3 7) scale(40) rotate(360)" shape-rendering="crispEdges">
    <rect width="1" height="1" x="6" y="3" fill="hsl(0, 0%, 0%)"></rect><rect width="1" height="1" x="7" y="3" fill="hsl(0, 0%, 0%)"></rect><rect width="1" height="1" x="8" y="3" fill="hsl(0, 0%, 0%)"></rect><rect width="1" height="1" x="9" y="3" fill="hsl(0, 0%, 0%)"></rect><rect width="1" height="1" x="10" y="3" fill="hsl(0, 0%, 0%)"></rect><rect width="1" height="1" x="11" y="3" fill="hsl(0, 0%, 0%)"></rect><rect width="1" height="1" x="12" y="3" fill="hsl(0, 0%, 0%)"></rect><rect width="1" height="1" x="13" y="3" fill="hsl(0, 0%, 0%)"></rect><rect width="1" height="1" x="5" y="4" fill="hsl(0, 0%, 0%)"></rect><rect width="1" height="1" x="6" y="4" fill="hsl(0, 0%, 0%)"></rect><rect width="1" height="1" x="7" y="4" fill="hsl(0, 0%, 0%)"></rect><rect width="1" height="1" x="8" y="4" fill="hsl(0, 0%, 0%)"></rect><rect width="1" height="1" x="9" y="4" fill="hsl(0, 0%, 0%)"></rect><rect width="1" height="1" x="10" y="4" fill="hsl(0, 0%, 0%)"></rect><rect width="1" height="1" x="11" y="4" fill="hsl(0, 0%, 0%)"></rect><rect width="1" height="1" x="12" y="4" fill="hsl(0, 0%, 0%)"></rect><rect width="1" height="1" x="13" y="4" fill="hsl(0, 0%, 0%)"></rect><rect width="1" height="1" x="14" y="4" fill="hsl(0, 0%, 0%)"></rect><rect width="1" height="1" x="4" y="5" fill="hsl(0, 0%, 0%)"></rect><rect width="1" height="1" x="5" y="5" fill="hsl(0, 0%, 0%)"></rect><rect width="1" height="1" x="6" y="5" fill="hsl(0, 0%, 0%)"></rect><rect width="1" height="1" x="7" y="5" fill="hsl(0, 0%, 0%)"></rect><rect width="1" height="1" x="8" y="5" fill="hsl(0, 0%, 0%)"></rect><rect width="1" height="1" x="9" y="5" fill="hsl(0, 0%, 0%)"></rect><rect width="1" height="1" x="10" y="5" fill="hsl(0, 0%, 0%)"></rect><rect width="1" height="1" x="11" y="5" fill="hsl(0, 0%, 0%)"></rect><rect width="1" height="1" x="12" y="5" fill="hsl(0, 0%, 0%)"></rect><rect width="1" height="1" x="13" y="5" fill="hsl(0, 0%, 0%)"></rect><rect width="1" height="1" x="14" y="5" fill="hsl(0, 0%, 0%)"></rect><rect width="1" height="1" x="15" y="5" fill="hsl(0, 0%, 0%)"></rect><rect width="1" height="1" x="3" y="6" fill="hsl(0, 0%, 0%)"></rect><rect width="1" height="1" x="4" y="6" fill="hsl(0, 0%, 0%)"></rect><rect width="1" height="1" x="5" y="6" fill="hsl(0, 0%, 0%)"></rect><rect width="1" height="1" x="6" y="6" fill="hsl(0, 0%, 0%)"></rect><rect width="1" height="1" x="7" y="6" fill="hsl(0, 0%, 0%)"></rect><rect width="1" height="1" x="12" y="6" fill="hsl(0, 0%, 0%)"></rect><rect width="1" height="1" x="13" y="6" fill="hsl(0, 0%, 0%)"></rect><rect width="1" height="1" x="14" y="6" fill="hsl(0, 0%, 0%)"></rect><rect width="1" height="1" x="15" y="6" fill="hsl(0, 0%, 0%)"></rect><rect width="1" height="1" x="16" y="6" fill="hsl(0, 0%, 0%)"></rect><rect width="1" height="1" x="2" y="7" fill="hsl(0, 0%, 0%)"></rect><rect width="1" height="1" x="3" y="7" fill="hsl(0, 0%, 0%)"></rect><rect width="1" height="1" x="4" y="7" fill="hsl(0, 0%, 0%)"></rect><rect width="1" height="1" x="5" y="7" fill="hsl(0, 0%, 0%)"></rect><rect width="1" height="1" x="6" y="7" fill="hsl(0, 0%, 0%)"></rect><rect width="1" height="1" x="13" y="7" fill="hsl(0, 0%, 0%)"></rect><rect width="1" height="1" x="14" y="7" fill="hsl(0, 0%, 0%)"></rect><rect width="1" height="1" x="15" y="7" fill="hsl(0, 0%, 0%)"></rect><rect width="1" height="1" x="16" y="7" fill="hsl(0, 0%, 0%)"></rect><rect width="1" height="1" x="17" y="7" fill="hsl(0, 0%, 0%)"></rect><rect width="1" height="1" x="2" y="8" fill="hsl(0, 0%, 0%)"></rect><rect width="1" height="1" x="3" y="8" fill="hsl(0, 0%, 0%)"></rect><rect width="1" height="1" x="4" y="8" fill="hsl(0, 0%, 0%)"></rect><rect width="1" height="1" x="5" y="8" fill="hsl(0, 0%, 0%)"></rect><rect width="1" height="1" x="14" y="8" fill="hsl(0, 0%, 0%)"></rect><rect width="1" height="1" x="15" y="8" fill="hsl(0, 0%, 0%)"></rect><rect width="1" height="1" x="16" y="8" fill="hsl(0, 0%, 0%)"></rect><rect width="1" height="1" x="17" y="8" fill="hsl(0, 0%, 0%)"></rect><rect width="1" height="1" x="2" y="9" fill="hsl(0, 0%, 0%)"></rect><rect width="1" height="1" x="3" y="9" fill="hsl(0, 0%, 0%)"></rect><rect width="1" height="1" x="4" y="9" fill="hsl(0, 0%, 0%)"></rect><rect width="1" height="1" x="5" y="9" fill="hsl(0, 0%, 0%)"></rect><rect width="1" height="1" x="14" y="9" fill="hsl(0, 0%, 0%)"></rect><rect width="1" height="1" x="15" y="9" fill="hsl(0, 0%, 0%)"></rect><rect width="1" height="1" x="16" y="9" fill="hsl(0, 0%, 0%)"></rect><rect width="1" height="1" x="17" y="9" fill="hsl(0, 0%, 0%)"></rect><rect width="1" height="1" x="2" y="10" fill="hsl(0, 0%, 0%)"></rect><rect width="1" height="1" x="3" y="10" fill="hsl(0, 0%, 0%)"></rect><rect width="1" height="1" x="4" y="10" fill="hsl(0, 0%, 0%)"></rect><rect width="1" height="1" x="5" y="10" fill="hsl(0, 0%, 0%)"></rect><rect width="1" height="1" x="14" y="10" fill="hsl(0, 0%, 0%)"></rect><rect width="1" height="1" x="15" y="10" fill="hsl(0, 0%, 0%)"></rect><rect width="1" height="1" x="16" y="10" fill="hsl(0, 0%, 0%)"></rect><rect width="1" height="1" x="17" y="10" fill="hsl(0, 0%, 0%)"></rect><rect width="1" height="1" x="1" y="11" fill="hsl(0, 0%, 0%)"></rect><rect width="1" height="1" x="2" y="11" fill="hsl(0, 0%, 0%)"></rect><rect width="1" height="1" x="3" y="11" fill="hsl(0, 0%, 0%)"></rect><rect width="1" height="1" x="4" y="11" fill="hsl(0, 0%, 0%)"></rect><rect width="1" height="1" x="5" y="11" fill="hsl(0, 0%, 0%)"></rect><rect width="1" height="1" x="6" y="11" fill="hsl(0, 0%, 0%)"></rect><rect width="1" height="1" x="13" y="11" fill="hsl(0, 0%, 0%)"></rect><rect width="1" height="1" x="14" y="11" fill="hsl(0, 0%, 0%)"></rect><rect width="1" height="1" x="15" y="11" fill="hsl(0, 0%, 0%)"></rect><rect width="1" height="1" x="16" y="11" fill="hsl(0, 0%, 0%)"></rect><rect width="1" height="1" x="17" y="11" fill="hsl(0, 0%, 0%)"></rect><rect width="1" height="1" x="18" y="11" fill="hsl(0, 0%, 0%)"></rect><rect width="1" height="1" x="1" y="12" fill="hsl(0, 0%, 0%)"></rect><rect width="1" height="1" x="2" y="12" fill="hsl(0, 0%, 0%)"></rect><rect width="1" height="1" x="3" y="12" fill="hsl(0, 0%, 0%)"></rect><rect width="1" height="1" x="4" y="12" fill="hsl(0, 0%, 0%)"></rect><rect width="1" height="1" x="5" y="12" fill="hsl(0, 0%, 0%)"></rect><rect width="1" height="1" x="6" y="12" fill="hsl(0, 0%, 0%)"></rect><rect width="1" height="1" x="13" y="12" fill="hsl(0, 0%, 0%)"></rect><rect width="1" height="1" x="14" y="12" fill="hsl(0, 0%, 0%)"></rect><rect width="1" height="1" x="15" y="12" fill="hsla(0, 100%, 50%, 1.00)"></rect><rect width="1" height="1" x="16" y="12" fill="hsla(0, 100%, 50%, 1.00)"></rect><rect width="1" height="1" x="17" y="12" fill="hsl(0, 0%, 0%)"></rect><rect width="1" height="1" x="18" y="12" fill="hsl(0, 0%, 0%)"></rect><rect width="1" height="1" x="1" y="13" fill="hsl(0, 0%, 0%)"></rect><rect width="1" height="1" x="2" y="13" fill="hsl(0, 0%, 0%)"></rect><rect width="1" height="1" x="3" y="13" fill="hsl(0, 0%, 0%)"></rect><rect width="1" height="1" x="4" y="13" fill="hsl(0, 0%, 0%)"></rect><rect width="1" height="1" x="5" y="13" fill="hsl(0, 0%, 0%)"></rect><rect width="1" height="1" x="6" y="13" fill="hsl(0, 0%, 0%)"></rect><rect width="1" height="1" x="13" y="13" fill="hsl(0, 0%, 0%)"></rect><rect width="1" height="1" x="14" y="13" fill="hsl(0, 0%, 0%)"></rect><rect width="1" height="1" x="15" y="13" fill="hsla(0, 100%, 50%, 1.00)"></rect><rect width="1" height="1" x="16" y="13" fill="hsla(0, 100%, 50%, 1.00)"></rect><rect width="1" height="1" x="17" y="13" fill="hsl(0, 0%, 0%)"></rect><rect width="1" height="1" x="18" y="13" fill="hsl(0, 0%, 0%)"></rect><rect width="1" height="1" x="1" y="14" fill="hsl(0, 0%, 0%)"></rect><rect width="1" height="1" x="2" y="14" fill="hsl(0, 0%, 0%)"></rect><rect width="1" height="1" x="3" y="14" fill="hsl(0, 0%, 0%)"></rect><rect width="1" height="1" x="4" y="14" fill="hsl(0, 0%, 0%)"></rect><rect width="1" height="1" x="5" y="14" fill="hsl(0, 0%, 0%)"></rect><rect width="1" height="1" x="6" y="14" fill="hsl(0, 0%, 0%)"></rect><rect width="1" height="1" x="13" y="14" fill="hsl(0, 0%, 0%)"></rect><rect width="1" height="1" x="14" y="14" fill="hsl(0, 0%, 0%)"></rect><rect width="1" height="1" x="15" y="14" fill="hsla(0, 100%, 50%, 1.00)"></rect><rect width="1" height="1" x="16" y="14" fill="hsla(0, 100%, 50%, 1.00)"></rect><rect width="1" height="1" x="17" y="14" fill="hsl(0, 0%, 0%)"></rect><rect width="1" height="1" x="18" y="14" fill="hsl(0, 0%, 0%)"></rect><rect width="1" height="1" x="2" y="15" fill="hsl(0, 0%, 0%)"></rect><rect width="1" height="1" x="3" y="15" fill="hsl(0, 0%, 0%)"></rect><rect width="1" height="1" x="4" y="15" fill="hsl(0, 0%, 0%)"></rect><rect width="1" height="1" x="5" y="15" fill="hsl(0, 0%, 0%)"></rect><rect width="1" height="1" x="14" y="15" fill="hsla(0, 100%, 50%, 1.00)"></rect><rect width="1" height="1" x="15" y="15" fill="hsl(0, 0%, 0%)"></rect><rect width="1" height="1" x="16" y="15" fill="hsl(0, 0%, 0%)"></rect><rect width="1" height="1" x="17" y="15" fill="hsl(0, 0%, 0%)"></rect><rect width="1" height="1" x="3" y="16" fill="hsl(0, 0%, 0%)"></rect><rect width="1" height="1" x="4" y="16" fill="hsl(0, 0%, 0%)"></rect><rect width="1" height="1" x="13" y="16" fill="hsla(0, 100%, 50%, 1.00)"></rect><rect width="1" height="1" x="15" y="16" fill="hsl(0, 0%, 0%)"></rect><rect width="1" height="1" x="16" y="16" fill="hsl(0, 0%, 0%)"></rect><rect width="1" height="1" x="12" y="17" fill="hsla(0, 100%, 50%, 1.00)"></rect>
  </pattern></defs><rect width="100%" height="100%" fill="url(#pppixelate-pattern)"></rect></svg>